<?xml version="1.0" standalone="no"?>
<!DOCTYPE svg PUBLIC "-//W3C//DTD SVG 20010904//EN"
 "http://www.w3.org/TR/2001/REC-SVG-20010904/DTD/svg10.dtd">
<svg version="1.0" xmlns="http://www.w3.org/2000/svg"
 width="197.000000pt" height="114.000000pt" viewBox="0 0 197.000000 114.000000"
 preserveAspectRatio="xMidYMid meet">

<g transform="translate(0.000000,114.000000) scale(0.100000,-0.100000)"
fill="#000000" stroke="none">
<path d="M53 1099 l-53 -31 0 -62 0 -62 56 -32 c54 -31 57 -32 84 -15 24 14
32 14 60 3 29 -12 36 -11 86 16 l54 29 0 62 0 61 -55 31 c-53 30 -57 31 -85
16 -28 -14 -33 -14 -52 0 -30 20 -35 19 -95 -16z m69 -80 c-3 -52 -1 -74 9
-80 11 -6 10 -9 -5 -15 -11 -4 -32 1 -54 14 -34 19 -37 25 -40 69 -3 46 -1 49
35 69 21 11 43 19 48 17 7 -2 9 -31 7 -74z m149 59 c39 -22 39 -24 37 -73 -3
-46 -6 -51 -43 -72 -22 -12 -42 -20 -44 -17 -3 3 -4 38 -2 78 2 49 -1 76 -9
81 -9 6 -9 10 1 16 18 11 14 12 60 -13z m-86 -73 c0 -39 -4 -50 -17 -53 -15
-3 -18 5 -18 53 0 48 3 56 18 53 13 -3 17 -14 17 -53z"/>
<path d="M480 1010 c0 -40 4 -70 10 -70 6 0 10 9 10 20 0 15 7 20 28 20 34 0
52 16 52 46 0 32 -26 54 -66 54 l-34 0 0 -70z m68 41 c23 -14 10 -46 -21 -49
-23 -3 -27 0 -27 21 0 36 19 47 48 28z"/>
<path d="M617 1073 c-4 -3 -7 -35 -7 -70 0 -49 3 -63 15 -63 9 0 15 9 15 25 0
20 5 25 25 25 14 0 25 5 25 10 0 6 -11 10 -25 10 -20 0 -25 5 -25 25 0 21 5
25 30 25 17 0 30 5 30 10 0 11 -73 14 -83 3z"/>
<path d="M740 1010 c0 -40 4 -70 10 -70 6 0 10 30 10 70 0 40 -4 70 -10 70 -6
0 -10 -30 -10 -70z"/>
<path d="M800 1010 c0 -40 4 -70 10 -70 6 0 10 11 10 25 0 20 5 25 25 25 14 0
25 5 25 10 0 6 -11 10 -25 10 -20 0 -25 5 -25 25 0 22 4 25 36 25 21 0 33 4
29 10 -3 6 -24 10 -46 10 l-39 0 0 -70z"/>
<path d="M920 1010 c0 -40 4 -70 10 -70 6 0 10 11 10 25 0 21 5 25 31 25 17 0
28 4 24 10 -3 6 -17 10 -31 10 -19 0 -24 5 -24 25 0 22 4 25 35 25 19 0 35 5
35 10 0 6 -20 10 -45 10 l-45 0 0 -70z"/>
<path d="M1040 1010 c0 -40 4 -70 10 -70 6 0 10 25 10 56 0 30 3 53 8 51 4 -3
16 -28 27 -56 13 -35 25 -51 37 -51 16 0 18 10 18 70 0 40 -4 70 -10 70 -5 0
-10 -26 -11 -57 l-1 -58 -25 58 c-18 39 -32 57 -45 57 -16 0 -18 -9 -18 -70z"/>
<path d="M1200 1010 l0 -70 40 0 c22 0 40 5 40 10 0 6 -13 10 -30 10 -23 0
-30 4 -30 20 0 15 7 20 25 20 14 0 25 5 25 10 0 6 -11 10 -25 10 -18 0 -25 5
-25 20 0 16 7 20 30 20 17 0 30 5 30 10 0 6 -18 10 -40 10 l-40 0 0 -70z"/>
<path d="M1320 1010 c0 -40 4 -70 10 -70 6 0 10 9 10 20 0 13 7 20 19 20 11 0
23 -9 26 -20 3 -11 13 -20 20 -20 12 0 12 5 3 25 -9 19 -9 28 0 37 18 18 14
56 -7 68 -11 5 -33 10 -50 10 l-31 0 0 -70z m69 41 c21 -13 5 -41 -24 -41 -20
0 -25 5 -25 25 0 26 22 33 49 16z"/>
<path d="M930 786 l0 -76 39 0 c22 0 43 5 46 10 4 6 -8 10 -29 10 -29 0 -36 4
-36 20 0 15 7 20 25 20 14 0 25 5 25 10 0 6 -11 10 -25 10 -18 0 -25 5 -25 19
0 15 8 21 33 23 46 4 39 22 -10 26 l-43 3 0 -75z"/>
<path d="M1050 786 c0 -44 4 -76 10 -76 6 0 10 11 10 25 0 18 5 25 20 25 13 0
24 -10 30 -25 5 -14 14 -25 20 -25 13 0 13 6 -1 32 -8 14 -8 23 0 31 13 13 15
64 3 71 -5 3 -28 8 -50 12 l-42 7 0 -77z m78 22 c-2 -17 -10 -23 -28 -23 -18
0 -26 6 -28 23 -3 19 1 22 28 22 27 0 31 -3 28 -22z"/>
<path d="M1262 844 c-17 -12 -22 -25 -22 -58 0 -52 24 -79 67 -74 24 3 28 8
31 41 2 28 -1 37 -12 37 -8 0 -18 -4 -21 -10 -3 -5 -1 -10 4 -10 6 0 11 -9 11
-20 0 -23 -29 -27 -48 -8 -17 17 -15 73 3 88 8 7 25 10 40 6 27 -7 35 8 9 18
-24 9 -38 7 -62 -10z"/>
<path d="M1380 785 l0 -75 34 0 c19 0 38 5 41 10 4 6 -7 10 -24 10 l-31 0 0
65 c0 37 -4 65 -10 65 -6 0 -10 -32 -10 -75z"/>
<path d="M1516 852 c-2 -4 -12 -36 -21 -71 -16 -62 -13 -92 6 -58 6 9 21 17
34 17 13 0 28 -8 34 -17 19 -35 21 -5 4 66 -13 54 -21 71 -34 71 -10 0 -20 -3
-23 -8z m34 -51 c7 -25 6 -33 -6 -38 -24 -9 -32 9 -22 46 10 38 15 37 28 -8z"/>
<path d="M1638 849 c-10 -5 -18 -21 -18 -34 0 -19 9 -28 36 -40 43 -18 40 -38
-7 -46 -27 -4 -30 -7 -16 -13 26 -12 65 1 72 25 8 25 -7 45 -41 53 -35 9 -28
41 9 41 15 -1 26 4 24 10 -5 14 -39 17 -59 4z"/>
<path d="M1740 785 l0 -75 45 0 c52 0 61 17 13 22 -46 4 -53 38 -9 38 38 0 41
18 4 22 -17 2 -29 10 -31 21 -3 14 4 17 32 17 25 0 36 4 36 15 0 11 -12 15
-45 15 l-45 0 0 -75z"/>
<path d="M1870 786 c0 -44 4 -76 10 -76 6 0 10 11 10 25 0 18 5 25 19 25 12 0
21 -9 25 -25 10 -38 24 -30 23 13 -1 20 2 44 6 52 11 24 -14 50 -56 57 l-37 6
0 -77z m68 22 c-2 -15 -11 -24 -25 -26 -19 -3 -23 1 -23 22 0 21 5 26 26 26
21 0 25 -4 22 -22z"/>
<path d="M480 780 c0 -84 18 -94 22 -12 l3 57 18 -53 c11 -29 24 -51 30 -49 5
1 17 25 26 53 l16 49 3 -57 c4 -82 22 -72 22 12 0 62 -2 70 -19 70 -15 0 -22
-12 -31 -50 -7 -27 -15 -48 -20 -45 -4 2 -13 25 -20 50 -9 33 -18 45 -31 45
-17 0 -19 -8 -19 -70z"/>
<path d="M671 836 c-7 -8 -11 -35 -9 -63 3 -42 6 -49 31 -57 36 -13 59 1 71
41 12 45 -10 87 -50 91 -18 2 -36 -3 -43 -12z m64 -56 c0 -41 -2 -45 -25 -45
-21 0 -26 5 -28 33 -5 47 4 64 30 60 20 -3 23 -9 23 -48z"/>
<path d="M799 828 c-10 -18 -8 -24 11 -40 12 -10 28 -18 36 -18 8 0 14 -9 14
-20 0 -16 -7 -20 -30 -20 -16 0 -30 -4 -30 -10 0 -14 54 -12 68 2 23 23 14 54
-19 69 -42 18 -42 33 -1 37 43 4 41 22 -3 22 -25 0 -37 -6 -46 -22z"/>
<path d="M487 558 c-9 -34 -13 -65 -10 -68 3 -3 8 1 10 8 6 15 55 16 71 0 19
-19 20 -7 5 60 -13 54 -17 62 -37 62 -20 0 -26 -8 -39 -62z m53 13 c7 -25 6
-33 -6 -38 -24 -9 -32 9 -22 46 10 38 15 37 28 -8z"/>
<path d="M610 555 l0 -65 41 0 c24 0 38 4 34 10 -3 6 -17 10 -31 10 -23 0 -24
3 -24 55 0 30 -4 55 -10 55 -6 0 -10 -28 -10 -65z"/>
<path d="M720 555 c0 -37 4 -65 10 -65 6 0 10 9 10 20 0 14 7 20 23 20 27 0
41 10 50 33 12 33 -10 57 -53 57 l-40 0 0 -65z m70 20 c0 -20 -5 -25 -25 -25
-20 0 -25 5 -25 25 0 20 5 25 25 25 20 0 25 -5 25 -25z"/>
<path d="M860 550 c0 -40 4 -70 10 -70 6 0 10 14 10 30 0 27 3 30 30 30 27 0
30 -3 30 -30 0 -16 5 -30 10 -30 6 0 10 30 10 70 0 40 -4 70 -10 70 -5 0 -10
-13 -10 -30 0 -27 -3 -30 -30 -30 -27 0 -30 3 -30 30 0 17 -4 30 -10 30 -6 0
-10 -30 -10 -70z"/>
<path d="M1021 582 c-21 -75 -24 -102 -12 -102 6 0 11 7 11 15 0 21 50 19 66
-2 21 -30 23 -11 6 60 -14 58 -19 67 -39 67 -17 0 -24 -8 -32 -38z m43 2 c12
-33 6 -54 -15 -54 -17 0 -20 4 -15 23 3 12 6 28 6 35 0 17 17 15 24 -4z"/>
<path d="M1240 550 l0 -70 45 0 c25 0 45 5 45 10 0 6 -16 10 -35 10 -28 0 -35
4 -35 20 0 16 7 20 30 20 17 0 30 5 30 10 0 6 -13 10 -30 10 -23 0 -30 4 -30
20 0 16 7 20 35 20 19 0 35 5 35 10 0 6 -20 10 -45 10 l-45 0 0 -70z"/>
<path d="M1350 610 c0 -5 9 -10 20 -10 18 0 20 -7 20 -60 0 -33 4 -60 10 -60
6 0 10 27 10 60 0 53 2 60 20 60 11 0 20 5 20 10 0 6 -22 10 -50 10 -27 0 -50
-4 -50 -10z"/>
<path d="M1140 540 c0 -5 14 -10 30 -10 17 0 30 5 30 10 0 6 -13 10 -30 10
-16 0 -30 -4 -30 -10z"/>
<path d="M480 330 c0 -40 4 -70 10 -70 6 0 10 14 10 30 0 28 3 30 35 30 32 0
35 -2 35 -30 0 -16 5 -30 10 -30 6 0 10 30 10 70 0 40 -4 70 -10 70 -5 0 -10
-13 -10 -30 0 -28 -3 -30 -35 -30 -32 0 -35 2 -35 30 0 17 -4 30 -10 30 -6 0
-10 -30 -10 -70z"/>
<path d="M651 363 c-21 -76 -24 -103 -12 -103 6 0 11 5 11 10 0 6 14 10 30 10
17 0 30 -4 30 -10 0 -5 6 -10 14 -10 11 0 11 11 -3 68 -14 54 -21 68 -39 70
-17 3 -23 -4 -31 -35z m43 -5 c10 -38 7 -48 -15 -48 -17 0 -20 4 -15 23 3 12
6 28 6 35 0 21 17 13 24 -10z"/>
<path d="M780 330 l0 -70 40 0 c22 0 40 5 40 10 0 6 -13 10 -30 10 -23 0 -30
4 -30 20 0 15 7 20 25 20 14 0 25 5 25 10 0 6 -11 10 -25 10 -18 0 -25 5 -25
20 0 16 7 20 30 20 17 0 30 5 30 10 0 6 -18 10 -40 10 l-40 0 0 -70z"/>
<path d="M910 330 c0 -40 4 -70 10 -70 6 0 10 11 10 25 0 20 5 25 25 25 14 0
25 5 25 10 0 6 -11 10 -25 10 -20 0 -25 5 -25 25 0 21 5 25 30 25 17 0 30 5
30 10 0 6 -18 10 -40 10 l-40 0 0 -70z"/>
<path d="M1030 330 l0 -70 46 0 c27 0 43 4 39 10 -3 6 -19 10 -36 10 -22 0
-29 5 -29 20 0 15 7 20 25 20 14 0 25 5 25 10 0 6 -11 10 -25 10 -18 0 -25 5
-25 20 0 16 7 20 35 20 19 0 35 5 35 10 0 6 -20 10 -45 10 l-45 0 0 -70z"/>
<path d="M1150 330 l0 -70 40 0 c22 0 40 5 40 10 0 6 -11 10 -25 10 -24 0 -25
3 -25 60 0 47 -3 60 -15 60 -12 0 -15 -14 -15 -70z"/>
<path d="M1240 395 c0 -3 9 -23 20 -45 11 -22 20 -51 20 -65 0 -14 5 -25 10
-25 6 0 10 15 10 33 0 17 9 47 20 65 23 37 24 42 10 42 -6 0 -16 -11 -22 -25
-6 -14 -14 -25 -18 -25 -4 0 -12 11 -18 25 -10 22 -32 35 -32 20z"/>
<path d="M772 60 c0 -19 2 -27 5 -17 2 9 2 25 0 35 -3 9 -5 1 -5 -18z"/>
<path d="M983 55 c0 -22 2 -30 4 -17 2 12 2 30 0 40 -3 9 -5 -1 -4 -23z"/>
<path d="M592 45 c0 -17 2 -22 5 -12 2 9 2 23 0 30 -3 6 -5 -1 -5 -18z"/>
<path d="M892 45 c0 -17 2 -22 5 -12 2 9 2 23 0 30 -3 6 -5 -1 -5 -18z"/>
<path d="M1521 54 c0 -11 3 -14 6 -6 3 7 2 16 -1 19 -3 4 -6 -2 -5 -13z"/>
<path d="M1552 45 c0 -17 2 -22 5 -12 2 9 2 23 0 30 -3 6 -5 -1 -5 -18z"/>
<path d="M922 40 c0 -14 2 -19 5 -12 2 6 2 18 0 25 -3 6 -5 1 -5 -13z"/>
<path d="M1732 40 c0 -14 2 -19 5 -12 2 6 2 18 0 25 -3 6 -5 1 -5 -13z"/>
<path d="M1871 44 c0 -11 3 -14 6 -6 3 7 2 16 -1 19 -3 4 -6 -2 -5 -13z"/>
<path d="M470 41 c0 -6 4 -13 10 -16 6 -3 7 1 4 9 -7 18 -14 21 -14 7z"/>
</g>
</svg>
