<?xml version="1.0" standalone="no"?>
<!DOCTYPE svg PUBLIC "-//W3C//DTD SVG 20010904//EN"
 "http://www.w3.org/TR/2001/REC-SVG-20010904/DTD/svg10.dtd">
<svg version="1.0" xmlns="http://www.w3.org/2000/svg"
 width="254.000000pt" height="199.000000pt" viewBox="0 0 254.000000 199.000000"
 preserveAspectRatio="xMidYMid meet">

<g transform="translate(0.000000,199.000000) scale(0.100000,-0.100000)"
fill="#000000" stroke="none">
<path d="M784 1371 c-200 -48 -332 -268 -280 -469 30 -119 105 -209 214 -260
l57 -27 495 0 495 0 57 27 c114 53 195 160 218 286 34 192 -82 381 -269 436
-47 14 -121 16 -505 15 -248 -1 -465 -4 -482 -8z m1021 -83 c62 -32 130 -104
158 -166 32 -72 30 -189 -4 -263 -33 -69 -89 -127 -155 -160 l-49 -24 -490 0
c-460 0 -492 1 -525 19 -66 35 -116 84 -151 148 -31 58 -34 70 -34 148 0 71 4
94 26 140 41 87 117 152 209 181 14 4 237 7 495 6 l470 -2 50 -27z"/>
<path d="M660 1133 c0 -5 20 -42 45 -83 40 -68 45 -81 45 -138 l0 -63 33 3
c32 3 32 3 37 68 5 54 13 76 48 133 23 37 42 72 42 77 0 6 -11 10 -24 10 -27
0 -55 -30 -76 -80 -7 -16 -16 -30 -20 -30 -4 0 -19 22 -33 49 -15 27 -34 52
-43 55 -22 8 -54 8 -54 -1z"/>
<path d="M1140 995 l0 -145 30 0 c28 0 29 1 32 57 l3 58 35 -58 c31 -51 38
-57 68 -57 l34 0 -17 28 c-10 15 -29 43 -42 62 l-23 34 37 38 37 38 -33 0
c-24 0 -40 -8 -59 -30 -15 -16 -30 -30 -34 -30 -5 0 -8 31 -8 69 0 54 -4 70
-16 75 -43 16 -44 13 -44 -139z"/>
<path d="M1620 995 l0 -145 30 0 30 0 0 133 c0 137 -5 157 -42 157 -17 0 -18
-12 -18 -145z"/>
<path d="M1750 1081 c0 -21 -5 -31 -15 -31 -8 0 -15 -9 -15 -20 0 -11 7 -23
15 -26 11 -5 15 -21 15 -61 0 -44 5 -58 25 -78 26 -27 62 -32 89 -12 25 18 11
46 -22 44 -26 -2 -27 1 -30 50 -3 47 -1 52 20 55 15 2 24 11 26 26 3 18 -1 22
-22 22 -20 0 -25 6 -28 28 -2 21 -9 28 -30 30 -25 3 -28 0 -28 -27z"/>
<path d="M927 1039 c-28 -16 -2 -42 34 -34 36 8 69 -2 69 -21 0 -10 -12 -14
-39 -14 -65 0 -111 -54 -83 -97 16 -25 62 -34 93 -19 16 8 31 10 35 5 3 -5 17
-9 31 -9 25 0 25 0 22 79 -5 101 -20 121 -93 121 -28 0 -59 -5 -69 -11z m103
-119 c0 -23 -32 -43 -54 -34 -19 7 -21 40 -3 47 30 13 57 7 57 -13z"/>
<path d="M1370 973 c0 -96 14 -123 66 -123 20 0 44 5 54 10 13 7 21 7 25 0 3
-5 16 -10 28 -10 21 0 22 3 19 101 -3 96 -4 100 -25 97 -19 -3 -23 -11 -27
-65 -6 -69 -16 -86 -51 -81 -22 3 -24 9 -29 73 -5 68 -6 70 -32 73 l-28 3 0
-78z"/>
<path d="M2112 1037 c-27 -29 -28 -61 -2 -87 56 -56 142 20 90 81 l-20 24 17
-31 c16 -30 16 -33 0 -58 -21 -31 -56 -34 -80 -8 -32 35 -13 82 38 95 19 5 19
5 -1 6 -11 0 -30 -9 -42 -22z"/>
<path d="M2137 1023 c-4 -3 -7 -20 -6 -37 0 -26 2 -28 8 -11 5 11 6 24 3 29
-2 4 2 12 9 17 8 5 9 9 3 9 -6 0 -14 -3 -17 -7z"/>
<path d="M2165 999 c-4 -12 -3 -25 2 -29 4 -5 8 4 9 21 1 34 -2 37 -11 8z"/>
</g>
</svg>
