<?xml version="1.0" standalone="no"?>
<!DOCTYPE svg PUBLIC "-//W3C//DTD SVG 20010904//EN"
 "http://www.w3.org/TR/2001/REC-SVG-20010904/DTD/svg10.dtd">
<svg version="1.0" xmlns="http://www.w3.org/2000/svg"
 width="320.000000pt" height="157.000000pt" viewBox="0 0 320.000000 157.000000"
 preserveAspectRatio="xMidYMid meet">

<g transform="translate(0.000000,157.000000) scale(0.100000,-0.100000)"
fill="#000000" stroke="none">
<path d="M829 1460 c-82 -13 -224 -55 -254 -74 -32 -21 -42 -44 -28 -65 14
-21 38 -16 88 19 105 75 332 110 470 75 95 -25 145 -54 218 -126 72 -72 113
-145 142 -254 23 -85 30 -236 16 -321 l-12 -71 -62 -46 c-71 -52 -147 -123
-147 -137 0 -6 11 -10 24 -10 17 0 33 12 52 38 31 42 82 87 91 79 11 -12 -89
-146 -152 -205 -282 -264 -747 -191 -901 143 -39 84 -46 127 -8 48 31 -63 79
-107 160 -145 58 -27 73 -30 203 -33 78 -2 156 -7 173 -10 44 -8 171 17 238
48 127 57 241 187 283 322 41 132 24 291 -43 395 -39 60 -144 161 -196 188
-139 71 -324 72 -482 1 -78 -34 -205 -125 -253 -181 -116 -135 -169 -264 -169
-412 0 -168 44 -283 147 -382 87 -83 139 -118 221 -146 59 -20 86 -23 217 -22
129 0 159 3 215 23 123 42 218 121 331 273 32 43 63 94 71 113 16 47 148 131
179 114 10 -5 19 -13 19 -17 0 -13 72 -82 85 -82 24 0 25 39 2 51 -26 14 -87
70 -87 81 0 4 25 15 56 24 32 9 53 21 51 27 -7 21 -39 20 -88 -4 -46 -21 -50
-21 -67 -6 -19 17 -52 23 -52 9 0 -4 6 -17 14 -27 13 -19 10 -23 -37 -54 -38
-25 -48 -29 -42 -15 4 11 9 67 12 126 5 88 2 123 -16 203 -30 127 -87 240
-160 314 -61 63 -105 90 -191 115 -65 20 -252 29 -331 16z m314 -168 c76 -37
180 -134 220 -203 110 -192 21 -479 -191 -612 -47 -30 -171 -70 -204 -65 -18
2 -9 11 47 43 200 115 304 307 262 480 -23 93 -44 133 -102 191 -64 64 -130
89 -230 87 -117 -3 -232 -53 -314 -136 -37 -38 -47 -44 -61 -34 -15 9 -28 3
-73 -31 -95 -74 -147 -171 -156 -292 -4 -63 -6 -69 -11 -35 -20 149 47 321
174 449 79 80 156 134 233 165 71 28 86 30 219 27 114 -2 125 -4 187 -34z
m-95 -134 c49 -15 127 -82 159 -135 26 -44 28 -56 28 -153 0 -98 -2 -109 -31
-165 -59 -112 -159 -202 -291 -262 -93 -43 -195 -21 -300 63 -124 101 -130
291 -15 462 113 166 287 240 450 190z m-525 -237 c-41 -78 -47 -98 -51 -167
-8 -138 35 -228 138 -292 32 -20 59 -40 60 -44 0 -10 -97 20 -145 44 -93 47
-145 130 -145 235 0 96 30 164 109 245 37 37 70 68 73 68 4 0 -14 -40 -39 -89z"/>
<path d="M485 1309 c-8 -25 7 -44 29 -36 22 9 20 34 -3 47 -16 8 -21 6 -26
-11z"/>
<path d="M2054 1284 c-37 -39 -101 -165 -132 -259 -11 -33 -32 -112 -46 -175
-21 -94 -30 -119 -51 -135 -28 -23 -33 -45 -10 -45 19 0 19 -27 0 -105 -24
-100 -17 -235 12 -235 12 0 13 12 8 68 -8 77 17 264 41 299 24 38 234 127 234
100 0 -3 -13 -28 -29 -55 -39 -66 -44 -87 -27 -101 34 -29 142 65 161 140 6
26 7 26 132 34 69 3 129 3 134 -2 4 -4 -23 -62 -62 -128 -75 -131 -83 -155
-45 -155 29 0 86 61 86 93 l0 22 -18 -23 c-10 -13 -20 -20 -24 -17 -10 10 63
134 109 185 58 64 49 75 -57 66 -141 -13 -261 -8 -281 10 -16 14 -20 14 -46
-4 -15 -11 -52 -25 -81 -31 -29 -6 -79 -24 -112 -41 -39 -20 -60 -26 -60 -18
0 7 16 74 35 148 55 209 137 360 196 360 20 0 22 -7 20 -50 -2 -20 0 -22 8
-10 14 19 14 56 1 81 -17 31 -58 24 -96 -17z m136 -477 c0 -8 -13 -32 -28 -53
-57 -77 -93 -87 -46 -12 45 72 74 98 74 65z"/>
<path d="M2842 993 c-27 -71 -59 -156 -72 -189 l-22 -62 -61 -15 c-85 -22 -91
-23 -97 -12 -10 18 61 55 107 55 37 0 44 3 41 18 -5 28 -68 27 -125 -2 -96
-51 -110 -80 -52 -109 35 -17 38 -17 100 3 35 11 68 20 72 20 5 0 7 -26 6 -58
-2 -61 4 -82 25 -82 9 0 13 21 12 78 0 66 6 94 42 197 24 66 57 150 74 187 28
62 32 98 9 98 -5 0 -32 -57 -59 -127z"/>
<path d="M1371 188 c1 -43 3 -55 8 -38 5 17 16 26 36 30 56 10 37 70 -22 70
-22 0 -23 -4 -22 -62z m64 22 c0 -9 -11 -16 -27 -18 -23 -3 -28 1 -28 18 0 17
5 21 28 18 16 -2 27 -9 27 -18z"/>
<path d="M1526 235 c-41 -41 -20 -105 34 -105 53 0 78 62 40 100 -24 24 -53
26 -74 5z m69 -44 c0 -60 -65 -70 -73 -12 -6 39 5 53 40 49 30 -3 33 -6 33
-37z"/>
<path d="M1681 187 c1 -34 3 -53 6 -42 8 34 20 37 41 11 24 -31 37 -34 21 -5
-8 15 -8 24 0 32 14 14 14 44 0 53 -7 4 -25 8 -40 10 l-29 4 1 -63z m64 23 c0
-9 -11 -16 -27 -18 -23 -3 -28 1 -28 18 0 17 5 21 28 18 16 -2 27 -9 27 -18z"/>
<path d="M1840 230 c-24 -24 -26 -63 -4 -84 17 -17 69 -22 79 -7 3 6 -9 8 -29
4 -31 -5 -37 -2 -48 22 -18 39 0 60 48 59 35 -2 36 0 19 12 -26 19 -41 18 -65
-6z"/>
<path d="M1980 188 l0 -58 38 2 c36 1 36 1 5 5 -25 3 -33 9 -33 24 0 14 7 19
30 19 17 0 30 5 30 11 0 5 -8 9 -17 8 -33 -3 -43 1 -43 16 0 10 10 15 30 15
17 0 30 4 30 10 0 5 -16 9 -35 8 l-35 -1 0 -59z"/>
<path d="M2392 190 c1 -60 1 -61 7 -20 l6 44 34 -42 c18 -24 36 -41 38 -38 9
8 9 96 1 109 -4 7 -8 -10 -8 -38 l-1 -50 -20 27 c-11 14 -28 37 -39 50 l-19
23 1 -65z"/>
<path d="M2565 196 c-14 -32 -23 -61 -19 -65 4 -3 9 0 11 7 5 14 73 17 73 2 0
-5 4 -10 9 -10 10 0 -25 96 -40 114 -5 5 -20 -16 -34 -48z m33 -24 c-27 -5
-32 2 -18 29 l13 22 13 -24 c11 -22 11 -24 -8 -27z"/>
<path d="M2713 244 c-7 -3 -13 -17 -13 -30 0 -19 6 -26 30 -30 21 -5 30 -12
30 -27 0 -17 -5 -19 -35 -14 -21 3 -33 2 -30 -4 9 -14 61 -11 74 5 16 19 5 40
-29 53 -40 15 -40 37 0 31 19 -3 29 -1 27 6 -4 12 -35 18 -54 10z"/>
<path d="M2110 185 l0 -55 38 1 c36 1 36 2 7 8 -29 6 -30 8 -27 54 2 28 -1 47
-7 47 -7 0 -11 -23 -11 -55z"/>
<path d="M2250 194 c-23 -53 -26 -74 -8 -56 15 15 61 15 76 0 18 -18 15 3 -8
56 -12 25 -25 46 -30 46 -5 0 -18 -21 -30 -46z m40 17 c0 -5 3 -16 6 -25 4
-12 0 -16 -16 -16 -16 0 -20 4 -16 16 3 9 6 20 6 25 0 5 5 9 10 9 6 0 10 -4
10 -9z"/>
</g>
</svg>
