<?xml version="1.0" standalone="no"?>
<!DOCTYPE svg PUBLIC "-//W3C//DTD SVG 20010904//EN"
 "http://www.w3.org/TR/2001/REC-SVG-20010904/DTD/svg10.dtd">
<svg version="1.0" xmlns="http://www.w3.org/2000/svg"
 width="151.000000pt" height="106.000000pt" viewBox="0 0 151.000000 106.000000"
 preserveAspectRatio="xMidYMid meet">

<g transform="translate(0.000000,106.000000) scale(0.100000,-0.100000)"
fill="#000000" stroke="none">
<path d="M0 645 l0 -415 295 0 295 0 0 295 0 295 -65 0 -65 0 0 -230 0 -230
-50 0 -50 0 0 235 0 235 -65 0 -65 0 0 -235 0 -235 -45 0 -45 0 0 285 0 285
685 0 685 0 0 65 0 65 -755 0 -755 0 0 -415z"/>
<path d="M680 525 l0 -295 190 0 190 0 0 60 0 60 -125 0 -125 0 0 50 0 50 125
0 125 0 0 185 0 185 -190 0 -190 0 0 -295z m250 110 l0 -55 -60 0 -60 0 0 55
0 55 60 0 60 0 0 -55z"/>
<path d="M1150 525 l0 -295 110 0 110 0 0 -55 0 -55 -685 0 -685 0 0 -60 0
-60 755 0 755 0 0 410 0 410 -180 0 -180 0 0 -295z m220 -10 l0 -165 -45 0
-45 0 0 165 0 165 45 0 45 0 0 -165z"/>
</g>
</svg>
